<?xml version="1.0" standalone="no"?>
<!DOCTYPE svg PUBLIC "-//W3C//DTD SVG 20010904//EN"
 "http://www.w3.org/TR/2001/REC-SVG-20010904/DTD/svg10.dtd">
<svg version="1.0" xmlns="http://www.w3.org/2000/svg"
 width="520.000000pt" height="520.000000pt" viewBox="0 0 520.000000 520.000000"
 preserveAspectRatio="xMidYMid meet">
<metadata>
Created by potrace 1.11, written by Peter Selinger 2001-2013
</metadata>
<g transform="translate(0.000000,520.000000) scale(0.100000,-0.100000)"
fill="#000000" stroke="none">
<path d="M70 5196 c0 -2 7 -7 16 -10 8 -3 12 -2 9 4 -6 10 -25 14 -25 6z"/>
<path d="M115 5191 c-3 -5 -2 -12 3 -15 5 -3 9 1 9 9 0 17 -3 19 -12 6z"/>
<path d="M190 5196 c0 -2 7 -7 16 -10 8 -3 12 -2 9 4 -6 10 -25 14 -25 6z"/>
<path d="M235 5191 c-3 -5 -2 -12 3 -15 5 -3 9 1 9 9 0 17 -3 19 -12 6z"/>
<path d="M310 5196 c0 -2 7 -7 16 -10 8 -3 12 -2 9 4 -6 10 -25 14 -25 6z"/>
<path d="M355 5191 c-3 -5 -2 -12 3 -15 5 -3 9 1 9 9 0 17 -3 19 -12 6z"/>
<path d="M430 5196 c0 -2 7 -7 16 -10 8 -3 12 -2 9 4 -6 10 -25 14 -25 6z"/>
<path d="M475 5191 c-3 -5 -2 -12 3 -15 5 -3 9 1 9 9 0 17 -3 19 -12 6z"/>
<path d="M550 5196 c0 -2 7 -7 16 -10 8 -3 12 -2 9 4 -6 10 -25 14 -25 6z"/>
<path d="M595 5191 c-3 -5 -2 -12 3 -15 5 -3 9 1 9 9 0 17 -3 19 -12 6z"/>
<path d="M670 5196 c0 -2 7 -7 16 -10 8 -3 12 -2 9 4 -6 10 -25 14 -25 6z"/>
<path d="M715 5191 c-3 -5 -2 -12 3 -15 5 -3 9 1 9 9 0 17 -3 19 -12 6z"/>
<path d="M790 5196 c0 -2 7 -7 16 -10 8 -3 12 -2 9 4 -6 10 -25 14 -25 6z"/>
<path d="M835 5191 c-3 -5 -2 -12 3 -15 5 -3 9 1 9 9 0 17 -3 19 -12 6z"/>
<path d="M910 5196 c0 -2 7 -7 16 -10 8 -3 12 -2 9 4 -6 10 -25 14 -25 6z"/>
<path d="M955 5191 c-3 -5 -2 -12 3 -15 5 -3 9 1 9 9 0 17 -3 19 -12 6z"/>
<path d="M1030 5196 c0 -2 7 -7 16 -10 8 -3 12 -2 9 4 -6 10 -25 14 -25 6z"/>
<path d="M1075 5191 c-3 -5 -2 -12 3 -15 5 -3 9 1 9 9 0 17 -3 19 -12 6z"/>
<path d="M1150 5196 c0 -2 7 -7 16 -10 8 -3 12 -2 9 4 -6 10 -25 14 -25 6z"/>
<path d="M1195 5191 c-3 -5 -2 -12 3 -15 5 -3 9 1 9 9 0 17 -3 19 -12 6z"/>
<path d="M1270 5196 c0 -2 7 -7 16 -10 8 -3 12 -2 9 4 -6 10 -25 14 -25 6z"/>
<path d="M1315 5191 c-3 -5 -2 -12 3 -15 5 -3 9 1 9 9 0 17 -3 19 -12 6z"/>
<path d="M1390 5196 c0 -2 7 -7 16 -10 8 -3 12 -2 9 4 -6 10 -25 14 -25 6z"/>
<path d="M1435 5191 c-3 -5 -2 -12 3 -15 5 -3 9 1 9 9 0 17 -3 19 -12 6z"/>
<path d="M1510 5196 c0 -2 7 -7 16 -10 8 -3 12 -2 9 4 -6 10 -25 14 -25 6z"/>
<path d="M1555 5191 c-3 -5 -2 -12 3 -15 5 -3 9 1 9 9 0 17 -3 19 -12 6z"/>
<path d="M1630 5196 c0 -2 7 -7 16 -10 8 -3 12 -2 9 4 -6 10 -25 14 -25 6z"/>
<path d="M1675 5191 c-3 -5 -2 -12 3 -15 5 -3 9 1 9 9 0 17 -3 19 -12 6z"/>
<path d="M1750 5196 c0 -2 7 -7 16 -10 8 -3 12 -2 9 4 -6 10 -25 14 -25 6z"/>
<path d="M1795 5191 c-3 -5 -2 -12 3 -15 5 -3 9 1 9 9 0 17 -3 19 -12 6z"/>
<path d="M1870 5196 c0 -2 7 -7 16 -10 8 -3 12 -2 9 4 -6 10 -25 14 -25 6z"/>
<path d="M1915 5191 c-3 -5 -2 -12 3 -15 5 -3 9 1 9 9 0 17 -3 19 -12 6z"/>
<path d="M1990 5196 c0 -2 7 -7 16 -10 8 -3 12 -2 9 4 -6 10 -25 14 -25 6z"/>
<path d="M2035 5191 c-3 -5 -2 -12 3 -15 5 -3 9 1 9 9 0 17 -3 19 -12 6z"/>
<path d="M2110 5196 c0 -2 7 -7 16 -10 8 -3 12 -2 9 4 -6 10 -25 14 -25 6z"/>
<path d="M2155 5191 c-3 -5 -2 -12 3 -15 5 -3 9 1 9 9 0 17 -3 19 -12 6z"/>
<path d="M2230 5196 c0 -2 7 -7 16 -10 8 -3 12 -2 9 4 -6 10 -25 14 -25 6z"/>
<path d="M2275 5191 c-3 -5 -2 -12 3 -15 5 -3 9 1 9 9 0 17 -3 19 -12 6z"/>
<path d="M2350 5196 c0 -2 7 -7 16 -10 8 -3 12 -2 9 4 -6 10 -25 14 -25 6z"/>
<path d="M2395 5191 c-3 -5 -2 -12 3 -15 5 -3 9 1 9 9 0 17 -3 19 -12 6z"/>
<path d="M2470 5196 c0 -2 7 -7 16 -10 8 -3 12 -2 9 4 -6 10 -25 14 -25 6z"/>
<path d="M2515 5191 c-3 -5 -2 -12 3 -15 5 -3 9 1 9 9 0 17 -3 19 -12 6z"/>
<path d="M2590 5196 c0 -2 7 -7 16 -10 8 -3 12 -2 9 4 -6 10 -25 14 -25 6z"/>
<path d="M2635 5191 c-3 -5 -2 -12 3 -15 5 -3 9 1 9 9 0 17 -3 19 -12 6z"/>
<path d="M2710 5196 c0 -2 7 -7 16 -10 8 -3 12 -2 9 4 -6 10 -25 14 -25 6z"/>
<path d="M2755 5191 c-3 -5 -2 -12 3 -15 5 -3 9 1 9 9 0 17 -3 19 -12 6z"/>
<path d="M2830 5196 c0 -2 7 -7 16 -10 8 -3 12 -2 9 4 -6 10 -25 14 -25 6z"/>
<path d="M2875 5191 c-3 -5 -2 -12 3 -15 5 -3 9 1 9 9 0 17 -3 19 -12 6z"/>
<path d="M2950 5196 c0 -2 7 -7 16 -10 8 -3 12 -2 9 4 -6 10 -25 14 -25 6z"/>
<path d="M2995 5191 c-3 -5 -2 -12 3 -15 5 -3 9 1 9 9 0 17 -3 19 -12 6z"/>
<path d="M3070 5196 c0 -2 7 -7 16 -10 8 -3 12 -2 9 4 -6 10 -25 14 -25 6z"/>
<path d="M3115 5191 c-3 -5 -2 -12 3 -15 5 -3 9 1 9 9 0 17 -3 19 -12 6z"/>
<path d="M3190 5196 c0 -2 7 -7 16 -10 8 -3 12 -2 9 4 -6 10 -25 14 -25 6z"/>
<path d="M3235 5191 c-3 -5 -2 -12 3 -15 5 -3 9 1 9 9 0 17 -3 19 -12 6z"/>
<path d="M3310 5196 c0 -2 7 -7 16 -10 8 -3 12 -2 9 4 -6 10 -25 14 -25 6z"/>
<path d="M3355 5191 c-3 -5 -2 -12 3 -15 5 -3 9 1 9 9 0 17 -3 19 -12 6z"/>
<path d="M3430 5196 c0 -2 7 -7 16 -10 8 -3 12 -2 9 4 -6 10 -25 14 -25 6z"/>
<path d="M3475 5191 c-3 -5 -2 -12 3 -15 5 -3 9 1 9 9 0 17 -3 19 -12 6z"/>
<path d="M3550 5196 c0 -2 7 -7 16 -10 8 -3 12 -2 9 4 -6 10 -25 14 -25 6z"/>
<path d="M3595 5191 c-3 -5 -2 -12 3 -15 5 -3 9 1 9 9 0 17 -3 19 -12 6z"/>
<path d="M3670 5196 c0 -2 7 -7 16 -10 8 -3 12 -2 9 4 -6 10 -25 14 -25 6z"/>
<path d="M3715 5191 c-3 -5 -2 -12 3 -15 5 -3 9 1 9 9 0 17 -3 19 -12 6z"/>
<path d="M3790 5196 c0 -2 7 -7 16 -10 8 -3 12 -2 9 4 -6 10 -25 14 -25 6z"/>
<path d="M3835 5191 c-3 -5 -2 -12 3 -15 5 -3 9 1 9 9 0 17 -3 19 -12 6z"/>
<path d="M3910 5196 c0 -2 7 -7 16 -10 8 -3 12 -2 9 4 -6 10 -25 14 -25 6z"/>
<path d="M3955 5191 c-3 -5 -2 -12 3 -15 5 -3 9 1 9 9 0 17 -3 19 -12 6z"/>
<path d="M4030 5196 c0 -2 7 -7 16 -10 8 -3 12 -2 9 4 -6 10 -25 14 -25 6z"/>
<path d="M4075 5191 c-3 -5 -2 -12 3 -15 5 -3 9 1 9 9 0 17 -3 19 -12 6z"/>
<path d="M4150 5196 c0 -2 7 -7 16 -10 8 -3 12 -2 9 4 -6 10 -25 14 -25 6z"/>
<path d="M4195 5191 c-3 -5 -2 -12 3 -15 5 -3 9 1 9 9 0 17 -3 19 -12 6z"/>
<path d="M4270 5196 c0 -2 7 -7 16 -10 8 -3 12 -2 9 4 -6 10 -25 14 -25 6z"/>
<path d="M4315 5191 c-3 -5 -2 -12 3 -15 5 -3 9 1 9 9 0 17 -3 19 -12 6z"/>
<path d="M4390 5196 c0 -2 7 -7 16 -10 8 -3 12 -2 9 4 -6 10 -25 14 -25 6z"/>
<path d="M4435 5191 c-3 -5 -2 -12 3 -15 5 -3 9 1 9 9 0 17 -3 19 -12 6z"/>
<path d="M4510 5196 c0 -2 7 -7 16 -10 8 -3 12 -2 9 4 -6 10 -25 14 -25 6z"/>
<path d="M4555 5191 c-3 -5 -2 -12 3 -15 5 -3 9 1 9 9 0 17 -3 19 -12 6z"/>
<path d="M4630 5196 c0 -2 7 -7 16 -10 8 -3 12 -2 9 4 -6 10 -25 14 -25 6z"/>
<path d="M4675 5191 c-3 -5 -2 -12 3 -15 5 -3 9 1 9 9 0 17 -3 19 -12 6z"/>
<path d="M4750 5196 c0 -2 7 -7 16 -10 8 -3 12 -2 9 4 -6 10 -25 14 -25 6z"/>
<path d="M4795 5191 c-3 -5 -2 -12 3 -15 5 -3 9 1 9 9 0 17 -3 19 -12 6z"/>
<path d="M4870 5196 c0 -2 7 -7 16 -10 8 -3 12 -2 9 4 -6 10 -25 14 -25 6z"/>
<path d="M4915 5191 c-3 -5 -2 -12 3 -15 5 -3 9 1 9 9 0 17 -3 19 -12 6z"/>
<path d="M4990 5196 c0 -2 7 -7 16 -10 8 -3 12 -2 9 4 -6 10 -25 14 -25 6z"/>
<path d="M5035 5191 c-3 -5 -2 -12 3 -15 5 -3 9 1 9 9 0 17 -3 19 -12 6z"/>
<path d="M5110 5196 c0 -2 7 -7 16 -10 8 -3 12 -2 9 4 -6 10 -25 14 -25 6z"/>
<path d="M5155 5191 c-3 -5 -2 -12 3 -15 5 -3 9 1 9 9 0 17 -3 19 -12 6z"/>
<path d="M2586 5008 c5 -8 2 -9 -10 -5 -10 4 -15 3 -11 -3 3 -6 -1 -10 -10
-10 -9 0 -13 5 -10 10 3 6 1 10 -4 10 -6 0 -11 -5 -11 -12 0 -9 -3 -9 -11 -1
-9 9 -18 9 -36 0 -19 -8 -26 -8 -32 2 -6 10 -10 9 -15 -4 -4 -11 -12 -15 -22
-11 -14 5 -15 4 -5 -8 10 -12 8 -13 -10 -9 -17 5 -20 3 -14 -7 5 -9 4 -11 -4
-6 -9 6 -9 11 0 22 11 13 9 13 -15 3 -22 -10 -32 -10 -47 0 -19 11 -19 10 -8
-11 12 -23 12 -23 -9 -5 -19 18 -21 18 -40 -3 -15 -16 -22 -18 -27 -9 -5 8 -4
10 3 5 7 -4 12 -2 12 4 0 7 -6 10 -12 7 -7 -2 -12 -12 -12 -21 1 -9 -2 -16 -7
-16 -9 0 -13 15 -10 33 1 5 -3 5 -9 2 -6 -4 -9 -13 -6 -21 7 -19 -11 -18 -22
2 -8 15 -10 15 -15 0 -4 -9 -1 -16 5 -16 6 0 9 -3 6 -6 -10 -10 -49 16 -42 28
4 7 3 8 -4 4 -9 -5 -9 -13 -1 -28 9 -16 8 -19 -3 -12 -20 13 -59 12 -48 -1 7
-8 1 -10 -22 -7 -18 3 -28 1 -25 -5 3 -5 0 -10 -8 -10 -8 0 -12 3 -10 7 2 3
-5 7 -16 7 -10 1 -19 -3 -19 -8 0 -6 4 -8 9 -5 5 3 11 0 14 -8 6 -16 -24 -17
-35 -1 -5 6 -8 5 -8 -2 0 -7 -7 -13 -15 -13 -8 0 -14 -6 -13 -12 3 -14 -5 -14
-34 -3 -16 7 -23 -6 -20 -36 1 -3 -6 -6 -13 -6 -12 0 -12 3 -2 16 10 12 9 14
-4 9 -9 -4 -23 -1 -30 5 -10 9 -10 8 1 -6 11 -16 11 -20 -5 -35 -12 -11 -15
-11 -8 -2 9 12 7 15 -14 17 -18 1 -22 -2 -12 -7 7 -5 10 -12 6 -16 -3 -4 -13
-2 -20 4 -10 9 -14 8 -14 -3 0 -8 5 -12 11 -9 6 3 3 -1 -6 -9 -10 -8 -14 -18
-10 -22 4 -5 2 -5 -5 -2 -6 4 -18 1 -25 -6 -8 -8 -27 -13 -43 -11 -22 2 -26 1
-15 -6 13 -8 13 -11 -1 -26 -13 -12 -18 -13 -24 -3 -5 7 -4 10 3 5 6 -3 13 -2
16 3 4 5 -2 8 -11 6 -10 -1 -17 -9 -15 -17 1 -8 -5 -15 -13 -16 -8 -1 -21 -3
-29 -4 -11 -1 -12 -7 -5 -25 6 -16 5 -22 -1 -18 -6 3 -10 1 -10 -4 0 -6 -4
-11 -10 -11 -5 0 -9 3 -7 8 1 4 -1 8 -5 10 -17 5 -20 1 -9 -12 8 -10 9 -16 1
-21 -6 -3 -7 -12 -3 -18 3 -7 -4 -3 -18 8 -18 15 -20 16 -10 3 10 -14 10 -18
1 -18 -8 0 -10 -8 -7 -21 5 -17 3 -18 -10 -7 -14 12 -15 11 -5 -9 16 -29 15
-41 0 -20 -12 14 -15 15 -38 1 -14 -9 -17 -13 -8 -10 9 2 19 -2 22 -10 4 -11
-1 -13 -18 -10 -19 3 -23 0 -21 -19 2 -18 -1 -22 -16 -18 -11 3 -19 0 -19 -6
0 -7 -5 -9 -12 -5 -8 5 -7 0 2 -11 12 -15 12 -17 1 -10 -11 6 -13 4 -8 -8 4
-12 1 -15 -14 -12 -17 3 -18 1 -9 -10 8 -9 8 -15 0 -20 -6 -3 -8 -10 -5 -15 3
-4 -2 -11 -11 -14 -8 -3 -12 -12 -9 -18 4 -7 0 -5 -8 5 -10 12 -17 14 -22 8
-3 -6 -2 -11 4 -11 6 0 8 -7 5 -15 -4 -8 -11 -12 -17 -8 -6 4 -7 1 -1 -8 5 -8
9 -24 9 -36 1 -17 -2 -20 -12 -11 -10 8 -13 3 -14 -26 -2 -54 -4 -61 -16 -59
-6 1 -14 -5 -17 -13 -5 -12 -2 -15 11 -10 17 6 17 5 0 -8 -14 -10 -15 -15 -5
-19 8 -4 7 -6 -4 -6 -10 -1 -18 -5 -18 -11 0 -5 8 -6 17 -3 15 6 16 4 6 -9 -7
-8 -9 -19 -5 -23 4 -5 2 -5 -4 -2 -7 4 -15 0 -18 -9 -9 -23 -7 -31 4 -14 7 12
9 10 7 -8 -1 -17 -6 -21 -22 -16 -14 4 -16 3 -7 -4 8 -5 14 -13 14 -17 0 -4
-6 -12 -14 -16 -8 -5 -9 -9 -2 -9 7 0 15 -7 18 -16 4 -12 2 -15 -9 -10 -8 3
-15 1 -15 -4 0 -5 8 -10 17 -12 15 -3 15 -4 -1 -20 -10 -10 -13 -18 -8 -18 14
0 22 -38 9 -43 -5 -1 -11 -11 -13 -20 -1 -9 2 -15 7 -11 14 8 11 -20 -3 -35
-11 -10 -10 -12 2 -9 11 2 14 -5 11 -27 -1 -16 -7 -35 -12 -41 -5 -6 -3 -19 6
-31 13 -18 13 -22 1 -26 -23 -9 -12 -42 12 -41 12 1 19 -3 16 -7 -3 -5 -11 -9
-19 -9 -8 0 -17 -5 -21 -12 -4 -7 -3 -8 4 -4 7 4 12 1 12 -9 0 -9 -5 -13 -11
-9 -8 5 -8 1 0 -14 15 -27 14 -65 -1 -81 -11 -11 -10 -12 0 -6 8 4 13 2 11 -6
-4 -34 0 -42 16 -29 13 11 14 10 8 -6 -3 -10 -11 -22 -17 -26 -7 -5 -7 -8 2
-8 7 0 11 -4 7 -9 -3 -5 -1 -12 4 -15 5 -3 7 -20 6 -36 -2 -23 1 -30 11 -26 7
3 16 0 20 -7 4 -7 4 -9 -1 -5 -14 13 -37 -13 -25 -27 8 -9 3 -12 -17 -9 -27 2
-27 2 -9 -12 11 -8 15 -14 9 -14 -7 0 -19 7 -28 16 -13 13 -16 14 -15 3 4 -26
0 -40 -9 -34 -5 3 -13 0 -17 -6 -4 -7 -3 -9 3 -6 15 10 24 -18 10 -32 -6 -6
-7 -11 -2 -11 6 -1 -1 -7 -14 -14 -20 -11 -21 -14 -7 -19 10 -4 15 -3 11 3 -3
6 -1 10 5 10 7 0 10 -6 7 -12 -2 -7 0 -23 4 -36 6 -15 5 -21 -1 -17 -6 3 -10
14 -11 23 0 10 -3 12 -5 5 -7 -15 14 -55 25 -49 11 7 8 -41 -3 -51 -5 -4 -6
-2 -2 4 5 9 2 11 -8 7 -12 -5 -13 -9 -3 -19 8 -9 16 -10 25 -3 7 6 15 8 19 4
3 -3 1 -6 -6 -6 -8 0 -11 -11 -9 -27 2 -17 8 -27 16 -25 8 1 11 -2 6 -9 -5 -9
-15 -3 -32 17 -15 18 -20 21 -13 8 6 -12 7 -25 3 -29 -4 -5 -2 -6 3 -2 6 3 19
-2 30 -10 16 -13 17 -15 3 -10 -21 7 -25 -8 -5 -16 14 -5 15 -75 2 -98 -5 -7
-4 -10 1 -6 6 3 16 2 24 -4 10 -5 11 -9 3 -9 -7 0 -10 -7 -7 -15 5 -13 9 -13
23 -3 14 11 14 11 4 -3 -7 -9 -9 -20 -5 -24 4 -5 -2 -5 -13 -2 -19 7 -19 6 -2
-7 18 -14 34 -61 17 -51 -6 3 -7 -1 -4 -9 3 -9 16 -16 28 -17 19 -1 18 -2 -4
-8 l-25 -7 30 -11 c17 -6 22 -12 13 -12 -9 -1 -19 -5 -23 -10 -3 -6 3 -8 15
-6 11 2 23 -1 26 -7 4 -7 2 -8 -4 -4 -7 4 -12 2 -12 -3 0 -6 5 -11 11 -11 5 0
7 -4 4 -10 -3 -5 1 -10 10 -10 10 0 13 5 9 13 -4 6 -3 8 1 4 14 -12 14 -36 2
-33 -7 2 -9 1 -4 -1 4 -3 4 -9 1 -15 -4 -6 3 -5 15 1 12 7 21 8 20 4 -3 -19 2
-27 10 -15 7 11 9 11 14 -2 4 -9 1 -15 -6 -13 -7 1 -11 -4 -9 -10 1 -7 -3 -13
-9 -13 -6 0 -9 7 -6 15 4 8 2 17 -3 20 -9 5 -14 -6 -12 -26 1 -3 -5 -6 -13 -6
-8 0 -12 3 -10 7 2 3 0 12 -6 20 -7 13 -9 12 -9 -1 0 -9 -6 -21 -13 -27 -10
-8 -13 -6 -14 11 -2 17 0 18 7 7 7 -11 9 -9 7 9 -1 22 -2 22 -17 3 -12 -15
-21 -17 -33 -10 -9 5 -17 5 -17 1 0 -4 -5 -1 -11 7 -9 13 -10 13 -6 0 2 -8 10
-14 16 -12 7 1 10 -2 6 -8 -4 -7 -12 -7 -26 0 -11 6 -17 15 -15 19 3 4 -1 8
-9 8 -8 0 -11 -5 -8 -10 4 -6 -2 -8 -15 -5 -14 4 -23 0 -26 -11 -3 -9 -4 -4
-2 11 2 15 -1 25 -5 22 -5 -3 -9 -11 -9 -19 0 -8 -7 -11 -20 -8 -11 3 -20 10
-20 17 0 6 -4 5 -9 -3 -6 -8 -14 -10 -22 -5 -24 15 -42 14 -29 -1 8 -10 8 -15
-1 -21 -7 -4 -9 -3 -6 3 4 6 0 14 -9 17 -12 4 -15 2 -10 -9 3 -8 1 -15 -4 -15
-6 0 -10 8 -11 18 0 14 -2 14 -9 -3 -8 -18 -9 -18 -10 5 0 22 -2 23 -11 7 -5
-9 -7 -22 -3 -29 4 -6 3 -8 -4 -4 -6 3 -12 1 -15 -6 -2 -7 -2 -2 0 12 3 22 2
23 -7 7 -6 -9 -15 -15 -21 -12 -5 4 -6 -2 -2 -11 5 -13 3 -16 -10 -11 -11 4
-14 2 -10 -8 3 -8 10 -12 17 -8 6 4 5 -1 -3 -10 -12 -15 -31 -15 -31 -1 0 3 5
2 12 -2 7 -4 8 -3 4 5 -4 6 -12 9 -17 5 -5 -3 -6 -10 -3 -16 4 -6 0 -15 -7
-20 -10 -7 -9 -8 6 -4 16 5 21 1 22 -17 0 -12 -1 -16 -4 -9 -9 24 -18 11 -18
-28 0 -25 5 -40 13 -40 6 0 12 -4 12 -9 0 -5 -10 -6 -22 -3 -22 5 -22 5 -5
-12 17 -17 24 -42 10 -33 -5 3 -6 -15 -4 -39 1 -25 -2 -50 -7 -57 -7 -8 -6
-18 4 -31 15 -21 19 -40 6 -32 -4 2 -6 -11 -4 -31 3 -21 0 -38 -8 -43 -8 -5
-7 -9 5 -13 9 -4 13 -3 10 2 -3 5 -2 12 3 15 4 2 8 -6 8 -19 0 -16 -4 -21 -15
-17 -13 4 -13 2 2 -15 17 -19 14 -33 -7 -33 -6 0 -4 5 4 10 9 6 10 10 3 10
-20 0 -26 -20 -8 -26 13 -6 14 -8 3 -15 -10 -7 -10 -9 0 -9 6 0 12 -4 12 -10
0 -5 -8 -6 -17 -3 -15 6 -16 5 -3 -9 8 -9 18 -14 22 -11 4 2 5 -3 2 -11 -3 -9
-10 -14 -14 -11 -5 3 -6 -4 -3 -16 3 -11 12 -23 20 -26 11 -4 7 -11 -14 -25
-15 -11 -20 -17 -9 -14 15 5 17 2 12 -19 -5 -18 -2 -25 8 -25 8 0 17 -7 20
-16 5 -14 4 -15 -9 -4 -13 11 -14 10 -9 -4 3 -9 10 -16 15 -16 5 0 9 -5 9 -11
0 -5 -4 -8 -9 -4 -5 3 -13 0 -17 -6 -4 -8 -3 -9 4 -5 15 9 15 1 1 -26 -8 -15
-8 -19 0 -14 6 4 11 2 11 -5 0 -8 5 -7 18 2 15 13 16 12 4 -3 -7 -9 -22 -15
-34 -13 -11 3 -17 1 -14 -3 4 -4 12 -7 17 -7 5 0 8 -4 7 -10 -2 -5 -6 -9 -9
-8 -3 1 -6 -5 -6 -12 0 -10 4 -12 12 -5 9 7 14 6 18 -4 4 -9 1 -18 -5 -22 -7
-5 -8 -2 -3 6 5 9 4 11 -3 6 -17 -10 -15 -24 6 -29 16 -4 16 -5 0 -6 -10 0
-18 -6 -18 -12 0 -5 4 -8 9 -4 5 3 13 0 17 -6 4 -7 3 -9 -3 -6 -6 4 -16 0 -23
-8 -11 -13 -10 -14 2 -10 9 4 18 0 21 -9 4 -10 1 -13 -9 -9 -7 3 -14 0 -14 -6
0 -10 12 -15 31 -13 3 1 6 -5 6 -13 0 -8 -4 -12 -9 -9 -4 3 -8 0 -8 -6 0 -6
-3 -9 -7 -7 -5 3 -8 -12 -8 -33 -1 -21 3 -36 7 -34 4 3 8 0 8 -5 0 -6 -5 -11
-11 -11 -5 0 -7 -5 -3 -12 5 -8 0 -9 -14 -6 -12 4 -25 1 -29 -4 -3 -6 -2 -8 3
-5 6 3 16 2 24 -4 13 -7 12 -9 -2 -9 -10 0 -18 -4 -18 -10 0 -5 -5 -10 -11
-10 -5 0 -7 5 -3 12 5 7 3 8 -5 4 -7 -5 -10 -10 -7 -13 9 -10 -14 -43 -30 -43
-8 0 -12 -5 -9 -10 4 -6 11 -7 17 -4 7 4 8 2 4 -4 -4 -6 -13 -9 -21 -6 -10 4
-12 -1 -8 -18 4 -18 3 -20 -6 -8 -9 13 -11 12 -11 -3 0 -12 -4 -16 -12 -11 -9
5 -8 2 1 -9 12 -15 12 -17 -2 -12 -8 4 -18 1 -23 -6 -4 -7 -3 -10 3 -6 6 4 13
1 16 -7 4 -10 0 -12 -16 -8 -20 5 -21 4 -7 -13 12 -15 12 -17 1 -10 -11 6 -13
4 -7 -10 5 -15 4 -16 -9 -5 -14 11 -14 10 -5 -14 9 -24 8 -26 -8 -17 -15 8
-18 5 -20 -15 -1 -17 2 -23 10 -18 6 4 3 -4 -8 -18 -10 -14 -22 -24 -25 -22
-4 2 -12 -2 -18 -9 -8 -10 -7 -14 4 -14 8 0 11 5 8 11 -3 6 -2 7 2 3 19 -16
13 -35 -9 -30 -21 5 -21 5 -1 -10 20 -16 20 -16 -3 -12 -13 2 -20 0 -17 -6 4
-5 8 -24 10 -41 4 -29 3 -30 -10 -12 -13 18 -14 17 -15 -14 0 -19 -4 -31 -10
-27 -6 4 -7 -1 -3 -11 4 -11 3 -15 -4 -11 -7 4 -10 0 -9 -10 2 -10 -3 -24 -11
-31 -9 -10 -10 -19 -3 -32 7 -13 6 -22 -4 -32 -9 -10 -11 -20 -5 -30 7 -12 4
-15 -9 -14 -9 0 -16 -5 -14 -13 1 -7 -3 -20 -10 -29 -12 -14 -10 -14 12 -3
l25 12 -22 -19 c-15 -13 -18 -23 -12 -33 15 -23 10 -34 -6 -13 -14 18 -14 17
-5 -9 7 -19 7 -26 0 -22 -6 4 -10 -8 -10 -29 0 -20 5 -36 11 -36 5 0 8 -4 5
-8 -2 -4 -1 -14 3 -21 6 -9 11 -10 15 -2 4 6 2 11 -4 11 -6 0 -8 5 -4 11 4 8
12 3 20 -12 l13 -24 1 25 1 25 15 -25 c14 -24 15 -24 11 -3 -3 13 -1 23 4 23
5 0 9 -6 9 -13 0 -8 13 -12 40 -10 22 1 40 -2 40 -8 0 -5 5 -9 11 -9 8 0 7 6
-2 17 -12 15 -12 16 3 10 9 -3 19 -3 21 1 2 4 2 2 1 -5 -2 -7 1 -15 7 -18 5
-4 9 -3 8 2 -4 20 2 24 18 12 14 -12 16 -12 11 2 -4 11 1 15 17 15 13 0 21 -4
19 -8 -3 -5 -10 -6 -15 -3 -5 4 -6 -2 -2 -11 4 -11 8 -13 11 -6 2 7 8 12 13
12 6 0 7 -5 3 -12 -4 -7 -3 -8 5 -4 6 4 9 11 6 16 -3 5 0 12 7 16 7 4 10 4 6
-1 -4 -4 -1 -14 7 -21 19 -20 30 -17 14 3 -12 15 -12 16 3 10 9 -3 19 -3 21 1
2 4 2 2 1 -5 -2 -7 1 -15 7 -18 5 -4 9 -3 8 2 -4 20 2 24 18 12 14 -12 16 -12
11 2 -4 11 1 15 17 15 13 0 21 -4 19 -8 -3 -5 -10 -6 -15 -3 -5 4 -6 -2 -2
-11 4 -11 8 -13 11 -6 2 7 8 12 13 12 6 0 7 -6 3 -12 -5 -9 -2 -9 9 1 14 11
17 11 17 0 0 -11 2 -11 10 1 9 13 11 13 20 0 6 -10 10 -11 10 -3 0 15 21 13
33 -2 5 -6 7 0 4 12 -3 13 -1 23 4 23 5 0 9 -6 9 -14 0 -12 7 -13 31 -6 24 7
30 6 26 -4 -3 -7 1 -13 8 -13 8 0 11 7 7 16 -4 13 -1 12 16 -3 12 -11 25 -16
29 -13 3 4 1 7 -5 7 -7 0 -12 4 -12 8 0 4 9 8 19 8 11 0 18 -3 16 -6 -2 -3 15
-5 38 -4 23 1 46 -4 50 -10 5 -6 7 -2 4 11 -3 13 -1 23 4 23 5 0 9 -6 9 -14 0
-12 7 -13 31 -6 24 7 30 6 26 -4 -3 -7 1 -13 8 -13 8 0 11 7 7 16 -4 13 -1 12
16 -3 12 -11 25 -16 29 -13 3 4 1 7 -5 7 -7 0 -12 4 -12 8 0 4 9 8 19 8 11 0
18 -3 16 -6 -2 -3 15 -5 38 -4 23 1 46 -4 50 -10 5 -6 7 -2 4 12 -3 12 -1 22
4 22 5 0 9 -6 9 -13 0 -8 13 -12 40 -10 22 1 40 -2 40 -8 0 -5 5 -9 11 -9 8 0
7 6 -2 17 -12 15 -12 16 3 10 9 -3 19 -3 21 1 2 4 2 2 1 -5 -2 -7 1 -15 7 -18
5 -4 9 -3 8 2 -4 20 2 24 18 12 14 -12 16 -12 11 1 -4 12 1 16 17 16 13 0 21
-4 19 -8 -3 -5 -10 -6 -15 -3 -5 4 -6 -2 -2 -11 4 -11 8 -13 11 -6 2 7 8 12
13 12 6 0 7 -5 3 -12 -4 -7 -3 -8 5 -4 6 4 9 11 6 16 -3 5 0 12 7 16 7 4 10 4
6 -1 -4 -4 -1 -14 7 -21 19 -20 30 -17 14 3 -12 15 -12 16 3 10 9 -3 19 -3 21
1 2 4 2 2 1 -5 -2 -7 1 -15 7 -18 5 -4 9 -3 8 2 -4 20 2 24 18 12 14 -12 16
-12 11 2 -4 11 1 15 17 15 13 0 21 -4 19 -8 -3 -5 -10 -6 -15 -3 -5 4 -6 -2
-2 -11 4 -11 8 -13 11 -6 2 7 8 12 13 12 6 0 7 -5 3 -12 -5 -7 -3 -8 7 -2 23
14 49 15 49 1 0 -9 2 -9 9 1 4 8 12 14 16 14 4 0 12 -6 17 -14 7 -9 8 -7 5 10
-3 12 -1 22 4 22 5 0 9 -6 9 -14 0 -12 7 -13 31 -6 24 7 30 6 26 -4 -3 -7 1
-13 8 -13 8 0 11 7 7 16 -4 13 -1 12 16 -3 12 -11 25 -16 29 -13 3 4 1 7 -5 7
-7 0 -12 4 -12 8 0 4 9 8 19 8 11 0 18 -3 16 -6 -2 -3 15 -5 38 -4 23 1 46 -4
50 -10 5 -6 7 -2 4 12 -3 12 -1 22 4 22 5 0 9 -6 9 -14 0 -12 7 -13 31 -6 24
7 30 6 26 -4 -3 -7 1 -13 8 -13 8 0 11 7 7 16 -4 13 -1 12 16 -3 12 -11 25
-16 29 -13 3 4 1 7 -5 7 -7 0 -12 4 -12 8 0 4 9 8 19 8 11 0 18 -3 16 -6 -2
-3 15 -5 38 -4 23 1 46 -4 50 -10 5 -6 7 -2 4 12 -3 12 -1 22 4 22 5 0 9 -6 9
-13 0 -8 13 -12 40 -10 22 1 40 -2 40 -8 0 -5 5 -9 11 -9 8 0 7 6 -2 17 -12
15 -12 16 3 10 9 -3 19 -3 21 1 2 4 2 2 1 -5 -2 -7 1 -15 7 -18 5 -4 9 -3 8 2
-4 20 2 24 18 12 14 -12 16 -12 11 1 -4 12 1 16 17 16 13 0 21 -4 19 -8 -3 -5
-10 -6 -15 -3 -5 4 -6 -2 -2 -11 4 -11 8 -13 11 -6 2 7 8 12 13 12 6 0 7 -5 3
-12 -4 -7 -3 -8 5 -4 6 4 9 11 6 16 -3 5 0 12 7 16 7 4 10 4 6 -1 -4 -4 -1
-14 7 -21 19 -20 30 -17 14 3 -12 15 -12 16 3 10 9 -3 19 -3 21 1 2 4 2 2 1
-5 -2 -7 1 -15 7 -18 5 -4 9 -3 8 2 -4 20 2 24 18 12 14 -12 16 -12 11 1 -4
12 1 16 17 16 13 0 21 -4 19 -8 -3 -5 -10 -6 -15 -3 -5 4 -6 -2 -2 -11 4 -11
8 -13 11 -6 2 7 8 12 13 12 6 0 7 -6 3 -13 -5 -8 -2 -8 9 2 14 11 17 11 17 0
0 -11 2 -11 10 1 9 13 11 13 20 0 6 -10 10 -11 10 -3 0 15 21 13 33 -2 5 -6 7
0 4 12 -3 13 -1 23 4 23 5 0 9 -6 9 -14 0 -12 7 -13 31 -6 24 7 30 6 26 -4 -3
-7 1 -13 8 -13 8 0 11 7 7 16 -4 13 -1 12 16 -3 12 -11 25 -16 29 -13 3 4 1 7
-5 7 -7 0 -12 4 -12 8 0 4 9 8 19 8 11 0 18 -3 16 -6 -2 -3 15 -5 38 -4 23 1
46 -4 50 -10 5 -6 7 -2 4 12 -3 12 -1 22 4 22 5 0 9 -6 9 -14 0 -12 7 -13 31
-6 24 7 30 6 26 -4 -3 -7 1 -13 8 -13 8 0 11 7 7 16 -4 13 -1 12 16 -3 12 -11
25 -16 29 -13 3 4 1 7 -5 7 -7 0 -12 4 -12 8 0 4 9 8 19 8 11 0 18 -3 16 -6
-2 -3 15 -5 38 -4 23 1 46 -4 50 -10 5 -6 7 -2 4 11 -3 13 -1 23 4 23 5 0 9
-6 9 -13 0 -8 13 -12 40 -10 22 1 40 -2 40 -8 0 -5 5 -9 11 -9 8 0 7 6 -2 17
-12 15 -12 16 3 10 9 -3 19 -3 21 1 2 4 2 2 1 -5 -2 -7 1 -15 7 -18 5 -4 9 -3
8 2 -4 20 2 24 18 12 14 -12 16 -12 11 2 -4 11 1 15 17 15 13 0 21 -4 19 -8
-3 -5 -10 -6 -15 -3 -5 4 -6 -2 -2 -11 4 -11 8 -13 11 -6 2 7 8 12 13 12 6 0
7 -5 3 -12 -4 -7 -3 -8 5 -4 6 4 9 11 6 16 -3 5 0 12 7 16 7 4 10 4 6 -1 -4
-4 -1 -14 7 -21 19 -20 30 -17 14 3 -12 15 -12 16 3 10 9 -3 19 -3 21 1 2 4 2
2 1 -5 -2 -7 1 -15 7 -18 5 -4 9 -3 8 2 -4 20 2 24 18 12 14 -12 16 -12 11 2
-4 11 1 15 17 15 13 0 21 -4 19 -8 -3 -5 -10 -6 -15 -3 -5 4 -6 -2 -2 -11 4
-11 8 -13 11 -6 2 7 8 12 13 12 6 0 7 -5 3 -12 -5 -7 -3 -8 7 -2 23 14 49 15
49 1 0 -9 2 -9 9 1 4 8 12 14 16 14 4 0 12 -6 17 -14 7 -9 8 -7 5 10 -3 12 -1
22 4 22 5 0 9 -6 9 -14 0 -12 7 -13 31 -6 24 7 30 6 26 -4 -3 -7 1 -13 8 -13
8 0 11 7 7 16 -4 13 -1 12 16 -3 12 -11 25 -16 29 -13 3 4 1 7 -5 7 -7 0 -12
4 -12 8 0 4 9 8 19 8 11 0 18 -3 16 -6 -2 -3 15 -5 38 -4 23 1 46 -4 50 -10 5
-6 7 -2 4 11 -3 13 -1 23 4 23 5 0 9 -6 9 -14 0 -12 7 -13 31 -6 24 7 30 6 26
-4 -3 -7 1 -13 8 -13 8 0 11 7 7 16 -4 13 -1 12 16 -3 12 -11 25 -16 29 -13 3
4 1 7 -5 7 -7 0 -12 4 -12 8 0 4 9 8 19 8 11 0 18 -3 16 -6 -2 -3 15 -5 38 -4
23 1 46 -4 50 -10 5 -6 7 -2 4 11 -3 13 -1 23 4 23 5 0 9 -6 9 -14 0 -16 34
-11 60 8 8 6 12 7 8 2 -10 -12 14 -32 39 -32 12 0 20 4 17 7 -2 4 0 10 5 13 5
4 12 2 16 -3 3 -6 12 -8 20 -4 8 3 15 -1 15 -8 0 -7 3 -9 6 -6 4 4 1 15 -7 24
-13 17 -12 17 7 0 19 -16 22 -16 28 -2 4 12 10 14 25 5 14 -7 22 -7 27 2 4 6
3 8 -3 5 -6 -4 -16 0 -23 8 -10 12 -9 16 2 20 8 3 15 12 15 20 0 18 -14 20
-19 3 -3 -7 -5 1 -5 19 0 26 2 29 12 17 9 -13 11 -13 11 5 0 11 -4 17 -8 15
-4 -3 -8 2 -8 10 0 9 -4 16 -10 16 -5 0 -6 8 -3 18 6 15 5 15 -10 3 -21 -17
-22 -8 -1 13 13 14 13 16 1 16 -8 0 -17 7 -21 15 -6 16 14 16 27 0 5 -6 7 -4
5 5 -3 8 -15 17 -29 20 l-24 6 23 8 23 8 -21 18 c-11 10 -20 22 -19 26 3 21
-2 35 -11 29 -6 -3 -10 1 -10 9 0 10 6 13 18 10 13 -5 14 -4 3 4 -8 6 -21 8
-30 5 -13 -5 -14 -3 -3 8 18 20 15 32 -8 26 -11 -3 -18 -1 -14 4 3 5 13 9 22
10 11 0 12 2 4 6 -6 2 -9 10 -5 16 4 7 -1 6 -10 -2 -10 -8 -17 -9 -17 -3 0 6
4 14 10 17 6 4 4 15 -6 30 -9 14 -14 32 -10 40 3 9 2 13 -4 10 -9 -6 -14 8
-11 28 0 4 -3 7 -8 7 -9 0 -24 33 -26 55 0 6 -8 9 -17 9 -11 -1 -14 4 -11 13
5 12 1 14 -18 9 -13 -3 -18 -3 -11 0 13 6 16 30 5 37 -5 2 -2 2 5 1 6 -2 12 2
12 7 0 6 -10 9 -23 7 -17 -3 -23 0 -24 14 -1 10 3 18 8 18 6 0 7 -4 4 -10 -3
-6 1 -7 10 -3 13 5 14 7 3 14 -7 5 -20 9 -30 9 -11 0 -15 7 -12 23 2 12 2 16
-2 10 -9 -19 -24 -16 -17 4 4 11 3 14 -5 9 -8 -5 -10 -2 -5 10 5 13 2 15 -17
9 -20 -6 -21 -5 -9 8 8 8 18 12 23 9 5 -3 6 0 2 7 -4 6 -12 9 -17 6 -5 -4 -12
1 -15 9 -3 9 -10 14 -14 11 -15 -9 -18 9 -7 35 15 37 17 51 5 44 -5 -4 -8 2
-6 13 2 11 -3 27 -11 37 -12 14 -12 16 2 11 8 -4 18 -1 23 6 4 8 3 10 -4 5 -7
-4 -12 -1 -12 9 0 9 5 13 10 10 6 -3 10 -2 10 4 0 5 -6 12 -12 14 -10 4 -10 6
0 6 10 1 9 5 -3 18 -16 16 -16 17 0 30 10 7 22 10 28 6 6 -3 7 -1 4 5 -4 5
-17 8 -30 6 -12 -2 -16 -1 -9 2 10 5 10 9 0 22 -12 13 -10 14 9 3 19 -10 22
-9 17 4 -6 14 -18 19 -38 16 -5 -1 -4 5 4 13 14 18 25 22 15 6 -3 -5 -1 -10 4
-10 15 0 14 13 -1 29 -10 11 -10 13 0 7 17 -10 15 2 -3 20 -8 9 -15 20 -15 27
0 6 5 5 13 -4 6 -8 11 -12 9 -10 -1 2 5 12 13 21 13 14 13 17 0 17 -8 0 -11
-5 -8 -11 3 -6 2 -7 -2 -3 -11 10 -16 39 -5 32 4 -3 11 2 14 11 10 25 7 27
-11 13 -15 -11 -16 -11 -6 1 7 8 13 22 13 32 0 10 4 18 10 18 5 0 8 -6 6 -12
-1 -7 -1 -10 1 -5 3 4 10 5 16 1 7 -3 1 4 -12 15 -21 19 -20 26 2 22 5 -1 5 3
2 9 -4 6 -13 9 -21 6 -7 -3 -16 0 -20 6 -4 7 -3 8 4 4 11 -7 17 6 13 27 -1 5
3 6 9 2 5 -3 10 -2 10 4 0 5 -6 11 -12 14 -10 3 -10 8 1 18 12 12 13 12 6 0
-5 -9 -4 -12 3 -7 5 3 12 0 15 -6 3 -7 4 -3 4 9 -1 12 -4 20 -8 17 -4 -2 -9 6
-12 17 -4 14 -1 19 7 16 7 -3 13 1 13 8 0 7 -6 11 -13 8 -10 -4 -11 2 -4 26 7
24 6 31 -6 31 -8 0 -14 4 -14 9 0 5 10 7 23 4 16 -3 18 -2 9 5 -8 5 -13 12
-13 16 4 26 0 36 -11 30 -8 -4 -10 -3 -5 2 5 5 14 9 20 9 7 0 12 5 12 10 0 6
4 15 8 22 4 6 0 18 -8 26 -20 20 -19 28 2 20 11 -4 14 -3 9 5 -4 7 -2 12 6 12
9 0 9 3 -2 10 -13 8 -13 11 -1 19 15 10 5 35 -10 25 -5 -3 -7 -10 -4 -15 4 -5
1 -9 -4 -9 -15 0 -14 17 2 32 16 14 11 45 -12 72 -9 11 -11 17 -6 14 6 -4 19
1 30 9 16 13 17 15 3 10 -20 -7 -25 8 -5 17 6 4 1 4 -13 2 -23 -5 -24 -4 -7 8
14 11 15 15 5 19 -10 4 -10 8 2 16 9 7 11 11 3 11 -7 0 -17 -8 -23 -17 -7 -12
-10 -13 -7 -3 2 8 -3 24 -12 34 -9 11 -10 16 -3 12 6 -4 12 -3 12 2 0 10 -29
26 -43 24 -4 -1 -6 1 -6 5 3 21 -3 33 -17 33 -9 0 -12 5 -8 13 4 7 3 9 -2 4
-5 -5 -9 -13 -9 -19 0 -6 -8 -12 -17 -14 -10 -1 -18 2 -18 7 0 5 -7 9 -16 9
-9 0 -12 5 -8 12 4 7 3 8 -4 4 -7 -4 -12 -15 -12 -24 -1 -13 -5 -11 -16 8 -8
14 -13 18 -10 8 7 -23 -3 -29 -28 -16 -11 7 -31 11 -43 9 -14 -1 -23 3 -23 11
0 8 -3 9 -8 3 -12 -17 -47 -41 -38 -27 5 8 -2 12 -25 12 -28 0 -30 -2 -18 -17
13 -16 12 -17 -3 -5 -9 8 -14 21 -11 30 3 10 -1 8 -11 -6 -10 -12 -22 -19 -29
-15 -6 4 -29 7 -50 8 -40 1 -78 27 -58 40 7 4 10 1 9 -7 -3 -15 45 -12 50 3 2
5 10 16 18 23 8 8 14 18 14 23 -1 4 -11 -5 -24 -20 -19 -24 -24 -26 -29 -13
-4 9 -1 15 6 13 7 -1 11 4 9 11 -1 6 1 11 5 11 5 -1 11 0 16 1 9 3 24 7 35 9
4 1 1 5 -7 10 -11 7 -11 12 0 32 7 13 12 28 10 34 -1 5 8 1 21 -10 13 -11 18
-13 11 -6 -13 16 -6 44 10 34 6 -3 7 -1 3 6 -6 9 -11 9 -21 1 -10 -8 -15 -8
-21 1 -4 8 -3 9 4 5 12 -7 13 -4 16 32 1 9 5 23 10 30 4 7 2 20 -6 30 -12 15
-11 16 5 3 10 -8 16 -20 13 -28 -4 -8 -1 -11 5 -8 6 4 7 14 4 24 -17 40 -15
60 6 71 17 10 18 14 7 28 -11 13 -11 14 1 7 11 -6 13 -4 8 7 -3 9 1 27 8 42
12 23 11 29 -5 28 -4 0 -6 10 -6 23 0 13 4 21 8 19 5 -3 5 -10 2 -16 -4 -7 -2
-8 4 -4 9 5 9 13 2 26 -15 28 -12 37 4 15 13 -18 14 -18 9 8 -3 15 0 34 8 44
12 15 12 16 -3 10 -12 -4 -15 -2 -12 8 3 8 9 13 12 12 4 -1 8 3 9 8 1 6 -5 9
-12 9 -11 -1 -12 3 -4 17 5 11 7 19 3 19 -3 0 -1 7 6 15 15 18 0 20 -20 3 -12
-11 -12 -10 0 5 17 23 18 73 2 69 -7 -1 -12 4 -12 12 0 16 -27 29 -42 20 -7
-4 -7 2 -3 17 7 21 6 22 -8 11 -14 -12 -15 -11 -8 15 4 15 6 33 4 40 -2 6 1
15 8 19 7 4 9 3 6 -3 -3 -5 -1 -10 6 -10 7 0 13 9 13 19 0 12 -5 17 -16 13 -9
-3 -8 1 4 10 20 15 20 15 0 16 -17 0 -16 1 4 9 12 5 22 12 22 14 0 3 -6 3 -14
0 -8 -3 -17 0 -22 7 -4 8 -3 10 4 5 7 -4 12 -2 12 4 0 6 5 8 12 4 7 -4 8 -3 4
5 -4 6 -17 9 -29 7 -13 -4 -11 0 7 8 25 11 26 14 10 20 -18 7 -18 8 -1 20 19
15 24 41 5 30 -9 -5 -9 -2 1 9 14 17 26 24 17 9 -3 -5 1 -9 9 -9 11 0 12 4 4
14 -6 7 -9 22 -6 33 3 13 0 20 -9 20 -8 0 -14 4 -14 10 0 5 7 7 15 4 11 -5 13
-2 9 10 -3 9 -11 13 -17 9 -6 -3 -7 -1 -3 6 6 9 11 9 21 1 10 -8 13 -7 11 4
-1 9 -5 19 -9 22 -4 4 -2 13 4 21 7 8 8 13 1 13 -5 0 -12 9 -15 20 -3 13 0 20
8 20 8 0 16 4 19 9 3 4 -7 7 -22 5 -15 -2 -20 -1 -11 2 11 3 15 12 11 26 -3
13 -1 19 5 15 5 -3 10 0 10 8 0 8 -4 12 -8 9 -4 -2 -13 4 -19 15 -7 14 -7 22
2 27 6 4 8 3 4 -4 -3 -6 -2 -13 3 -17 11 -6 7 28 -5 47 -5 8 -2 9 12 4 10 -4
15 -4 11 0 -4 4 -2 13 5 21 6 8 7 13 2 12 -23 -4 -45 2 -39 11 4 6 11 8 16 5
5 -3 6 1 3 9 -3 9 -11 13 -18 9 -6 -4 -5 0 2 9 11 14 9 20 -15 43 -25 24 -25
26 -5 15 22 -11 23 -10 12 10 -6 11 -16 17 -22 14 -7 -4 -8 -3 -4 5 4 6 11 9
16 6 5 -3 12 0 16 7 4 7 4 10 -1 6 -13 -12 -35 12 -28 29 5 12 3 14 -7 8 -8
-5 -11 -4 -6 3 4 6 12 10 19 8 7 -1 9 -1 4 1 -4 3 -5 9 -2 14 4 5 -2 6 -12 2
-16 -6 -17 -5 -3 12 8 10 10 16 4 12 -7 -4 -15 0 -18 9 -3 8 -2 12 4 9 5 -3 7
4 3 17 -3 13 -6 31 -6 40 -1 9 -5 14 -9 12 -8 -5 -11 9 -5 22 1 3 -6 10 -16
15 -9 6 -14 15 -11 21 4 6 3 8 -3 5 -6 -4 -13 0 -16 7 -4 10 0 13 14 11 11 -2
17 0 14 6 -4 5 -11 7 -16 4 -5 -4 -14 5 -20 19 -7 14 -17 22 -23 19 -6 -4 -4
2 4 13 8 10 10 16 5 11 -14 -12 -43 22 -38 44 5 17 -5 24 -30 20 -5 -1 -6 3
-2 9 3 5 -1 13 -10 16 -14 6 -14 8 2 21 10 8 13 12 6 9 -6 -4 -14 -2 -18 4 -4
6 -11 7 -17 4 -8 -5 -9 4 -5 27 3 19 3 28 0 21 -2 -6 -8 -10 -13 -7 -4 3 -7
-3 -6 -12 2 -10 1 -12 -1 -5 -3 6 -10 12 -16 12 -7 1 -5 6 4 13 15 11 15 14 1
27 -14 13 -15 12 -9 -3 4 -11 1 -17 -8 -17 -9 0 -12 8 -10 21 4 18 2 19 -12 7
-15 -11 -16 -11 -10 6 7 17 6 17 -9 5 -16 -13 -16 -12 -4 10 11 21 10 23 -4
18 -10 -4 -15 -3 -11 3 5 8 -13 14 -36 12 -3 -1 -6 6 -6 13 0 10 4 12 12 5 8
-7 12 -5 12 4 0 14 -21 16 -33 3 -4 -4 -12 -7 -18 -7 -6 0 -4 5 4 10 11 7 11
10 2 10 -7 0 -11 4 -8 9 3 5 -1 14 -9 21 -8 7 -15 9 -15 5 0 -5 -9 0 -21 11
-12 10 -30 18 -40 16 -10 -2 -19 2 -19 8 0 6 4 8 10 5 6 -4 7 1 3 11 -4 11 -8
13 -11 6 -2 -7 -13 -12 -23 -12 -11 0 -17 5 -14 10 3 6 0 10 -9 10 -8 0 -16
-5 -18 -12 -3 -7 -7 -5 -11 6 -4 9 -3 15 1 12 5 -3 9 1 9 8 0 8 -8 11 -19 8
-10 -2 -15 -9 -11 -15 3 -6 1 -7 -6 -3 -6 4 -8 12 -5 18 5 8 1 9 -10 5 -10 -4
-15 -3 -11 3 6 10 -3 13 -37 13 -16 0 -22 9 -19 30 0 4 -4 7 -10 7 -6 0 -8 -9
-4 -21 7 -20 6 -20 -18 1 -14 12 -27 21 -29 20 -1 0 -19 5 -38 13 -23 10 -42
12 -57 6 -20 -7 -23 -5 -23 13 0 21 0 21 -16 2 -8 -10 -13 -13 -9 -6 6 12 -6
16 -34 13 -8 -2 -10 2 -5 10 4 8 3 10 -4 5 -7 -4 -12 -1 -12 6 0 9 -3 9 -10
-2 -5 -8 -10 -11 -10 -6 0 6 -5 5 -12 -2 -15 -15 -28 -15 -28 -1 0 5 6 7 13 3
8 -5 8 -2 -2 9 -15 18 -26 23 -16 7 3 -5 -1 -10 -10 -10 -9 0 -14 4 -10 9 3 5
1 12 -4 15 -5 4 -13 1 -17 -5 -5 -8 -3 -9 7 -4 8 5 10 4 6 0 -18 -21 -75 -7
-62 15 3 5 -1 7 -7 6 -7 -1 -13 -6 -13 -11 0 -6 3 -9 8 -7 4 1 7 -2 7 -8 0
-13 -13 -13 -28 2 -8 8 -15 8 -28 -3 -10 -8 -15 -9 -11 -2 4 6 4 13 0 16 -5 2
-3 2 4 1 7 -2 15 0 17 5 5 7 -8 11 -47 12 -10 0 -15 5 -11 11 4 7 2 8 -5 4 -6
-4 -9 -11 -6 -16 3 -5 0 -12 -6 -16 -8 -5 -9 -3 -4 6 6 10 0 12 -23 8 -22 -3
-29 -1 -22 7 6 7 -1 10 -23 10 -18 -1 -42 2 -55 7 -17 6 -21 5 -16 -4z m-84
-30 c-7 -7 -12 -8 -12 -2 0 14 12 26 19 19 2 -3 -1 -11 -7 -17z m118 18 c0 -2
-9 -6 -20 -9 -11 -3 -18 -1 -14 4 5 9 34 13 34 5z m33 -13 c-3 -7 -6 -13 -8
-13 -2 0 -5 6 -8 13 -3 8 1 14 8 14 7 0 11 -6 8 -14z m-188 -11 c-3 -3 -11 0
-18 7 -9 10 -8 11 6 5 10 -3 15 -9 12 -12z m298 -2 c-3 -12 -8 -19 -11 -16 -5
6 5 36 12 36 2 0 2 -9 -1 -20z m247 -52 c0 -6 -6 -5 -15 2 -8 7 -15 14 -15 16
0 2 7 1 15 -2 8 -4 15 -11 15 -16z m165 -28 c3 -6 -1 -7 -9 -4 -18 7 -21 14
-7 14 6 0 13 -4 16 -10z m39 -21 c-3 -5 -10 -7 -15 -3 -5 3 -7 10 -3 15 3 5
10 7 15 3 5 -3 7 -10 3 -15z m96 -29 c0 -5 -5 -10 -11 -10 -5 0 -7 5 -4 10 3
6 8 10 11 10 2 0 4 -4 4 -10z m205 -108 c-6 -6 -35 18 -35 29 0 5 9 1 20 -8
11 -9 17 -19 15 -21z m30 -1 c3 -5 2 -12 -3 -15 -5 -3 -9 1 -9 9 0 17 3 19 12
6z m-1935 -65 c0 -3 -4 -8 -10 -11 -5 -3 -10 -1 -10 4 0 6 5 11 10 11 6 0 10
-2 10 -4z m-285 -366 c3 -5 1 -10 -4 -10 -6 0 -11 5 -11 10 0 6 2 10 4 10 3 0
8 -4 11 -10z m2590 -70 c9 -16 13 -30 11 -30 -3 0 -12 14 -21 30 -9 17 -13 30
-11 30 3 0 12 -13 21 -30z m-2690 -239 c3 -5 2 -12 -3 -15 -5 -3 -9 1 -9 9 0
17 3 19 12 6z m2 -96 c0 -8 -4 -12 -9 -9 -5 3 -6 10 -3 15 9 13 12 11 12 -6z
m0 -61 c-3 -3 -12 -4 -19 -1 -8 3 -5 6 6 6 11 1 17 -2 13 -5z m2763 -135 c0
-5 -4 -9 -8 -9 -5 0 -9 7 -9 15 0 8 4 12 9 9 4 -3 8 -9 8 -15z m-2763 -8 c-1
-15 -4 -17 -14 -9 -7 5 -10 14 -7 19 10 16 23 9 21 -10z m2768 -21 c3 -6 -1
-7 -9 -4 -18 7 -21 14 -7 14 6 0 13 -4 16 -10z m-2780 -39 c3 -5 2 -12 -3 -15
-5 -3 -9 1 -9 9 0 17 3 19 12 6z m12 -88 c-4 -3 -1 -13 6 -22 11 -14 10 -14
-5 -2 -21 15 -23 31 -6 31 6 0 8 -3 5 -7z m19 -155 c-2 -13 4 -34 12 -48 l14
-25 -20 24 c-11 14 -18 32 -17 40 2 9 4 19 4 24 1 4 3 7 6 7 3 0 3 -10 1 -22z
m2729 -147 c3 -5 2 -12 -3 -15 -5 -3 -9 1 -9 9 0 17 3 19 12 6z m30 -31 c-3
-5 -12 -10 -18 -10 -7 0 -6 4 3 10 19 12 23 12 15 0z m-15 -294 c-7 -7 -13 -7
-20 0 -6 6 -3 10 10 10 13 0 16 -4 10 -10z m-2615 -396 c3 -6 -1 -7 -9 -4 -18
7 -21 14 -7 14 6 0 13 -4 16 -10z m-337 -65 c-3 -3 -9 2 -12 12 -6 14 -5 15 5
6 7 -7 10 -15 7 -18z m3016 7 c3 -5 -1 -9 -9 -9 -8 0 -12 4 -9 9 3 4 7 8 9 8
2 0 6 -4 9 -8z m207 -25 c-10 -9 -11 -8 -5 6 3 10 9 15 12 12 3 -3 0 -11 -7
-18z m-3391 -337 c0 -5 -7 -7 -15 -4 -8 4 -15 8 -15 10 0 2 7 4 15 4 8 0 15
-4 15 -10z m3491 -24 c-6 -7 -8 -16 -4 -20 4 -4 -1 -4 -11 0 -16 6 -17 8 -2
16 9 5 13 14 10 20 -4 7 -2 8 5 4 8 -6 9 -12 2 -20z m-3490 -279 c-10 -9 -11
-8 -5 6 3 10 9 15 12 12 3 -3 0 -11 -7 -18z m12 -80 c3 -8 -1 -14 -8 -14 -7 0
-11 6 -8 14 3 7 6 13 8 13 2 0 5 -6 8 -13z m8 -120 c-10 -9 -11 -8 -5 6 3 10
9 15 12 12 3 -3 0 -11 -7 -18z m16 -266 c1 -11 -4 -22 -12 -24 -8 -4 -12 1
-10 11 2 9 4 20 4 25 2 16 17 6 18 -12z m3413 -45 c0 -11 -19 -15 -25 -6 -3 5
1 10 9 10 9 0 16 -2 16 -4z m-3455 -75 c3 -5 2 -12 -3 -15 -5 -3 -9 1 -9 9 0
17 3 19 12 6z m3470 -11 c3 -6 -1 -7 -9 -4 -18 7 -21 14 -7 14 6 0 13 -4 16
-10z m152 -224 c0 -8 -6 -12 -15 -9 -11 5 -11 7 0 14 7 5 13 9 14 9 0 0 1 -6
1 -14z m22 -56 c11 -24 11 -24 -3 -6 -9 11 -16 24 -16 30 0 12 5 7 19 -24z
m41 -85 c14 -19 14 -19 -2 -6 -10 7 -18 18 -18 24 0 6 1 8 3 6 1 -2 9 -13 17
-24z m-3970 -150 c-7 -8 -17 -15 -23 -15 -6 0 -3 6 8 13 11 9 15 19 10 28 -6
11 -5 12 5 2 11 -10 11 -15 0 -28z m4030 1 c0 -3 -4 -8 -10 -11 -5 -3 -10 -1
-10 4 0 6 5 11 10 11 6 0 10 -2 10 -4z m15 -46 c3 -5 -1 -10 -9 -10 -9 0 -16
5 -16 10 0 6 4 10 9 10 6 0 13 -4 16 -10z m30 -140 c-3 -5 -12 -10 -18 -10 -7
0 -6 4 3 10 19 12 23 12 15 0z m-3427 -125 c-3 -3 -9 2 -12 12 -6 14 -5 15 5
6 7 -7 10 -15 7 -18z m240 0 c-3 -3 -9 2 -12 12 -6 14 -5 15 5 6 7 -7 10 -15
7 -18z m720 0 c-3 -3 -9 2 -12 12 -6 14 -5 15 5 6 7 -7 10 -15 7 -18z m240 0
c-3 -3 -9 2 -12 12 -6 14 -5 15 5 6 7 -7 10 -15 7 -18z m720 0 c-3 -3 -9 2
-12 12 -6 14 -5 15 5 6 7 -7 10 -15 7 -18z m240 0 c-3 -3 -9 2 -12 12 -6 14
-5 15 5 6 7 -7 10 -15 7 -18z m720 0 c-3 -3 -9 2 -12 12 -6 14 -5 15 5 6 7 -7
10 -15 7 -18z m240 0 c-3 -3 -9 2 -12 12 -6 14 -5 15 5 6 7 -7 10 -15 7 -18z
m-3358 7 c0 -5 -7 -9 -15 -9 -8 0 -12 4 -9 9 3 4 9 8 15 8 5 0 9 -4 9 -8z m44
0 c3 -5 -1 -9 -9 -9 -8 0 -15 4 -15 9 0 4 4 8 9 8 6 0 12 -4 15 -8z m241 -2
c3 -6 -1 -7 -9 -4 -18 7 -21 14 -7 14 6 0 13 -4 16 -10z m240 0 c3 -6 -1 -7
-9 -4 -18 7 -21 14 -7 14 6 0 13 -4 16 -10z m435 2 c0 -5 -7 -9 -15 -9 -8 0
-12 4 -9 9 3 4 9 8 15 8 5 0 9 -4 9 -8z m44 0 c3 -5 -1 -9 -9 -9 -8 0 -15 4
-15 9 0 4 4 8 9 8 6 0 12 -4 15 -8z m241 -2 c3 -6 -1 -7 -9 -4 -18 7 -21 14
-7 14 6 0 13 -4 16 -10z m240 0 c3 -6 -1 -7 -9 -4 -18 7 -21 14 -7 14 6 0 13
-4 16 -10z m435 2 c0 -5 -7 -9 -15 -9 -8 0 -12 4 -9 9 3 4 9 8 15 8 5 0 9 -4
9 -8z m44 0 c3 -5 -1 -9 -9 -9 -8 0 -15 4 -15 9 0 4 4 8 9 8 6 0 12 -4 15 -8z
m241 -2 c3 -6 -1 -7 -9 -4 -18 7 -21 14 -7 14 6 0 13 -4 16 -10z m240 0 c3 -6
-1 -7 -9 -4 -18 7 -21 14 -7 14 6 0 13 -4 16 -10z m435 2 c0 -5 -7 -9 -15 -9
-8 0 -12 4 -9 9 3 4 9 8 15 8 5 0 9 -4 9 -8z m44 0 c3 -5 -1 -9 -9 -9 -8 0
-15 4 -15 9 0 4 4 8 9 8 6 0 12 -4 15 -8z m241 -2 c3 -6 -1 -7 -9 -4 -18 7
-21 14 -7 14 6 0 13 -4 16 -10z m240 0 c3 -6 -1 -7 -9 -4 -18 7 -21 14 -7 14
6 0 13 -4 16 -10z m155 -1 c0 -11 -29 -19 -34 -10 -3 5 -3 10 -1 13 8 7 35 5
35 -3z"/>
<path d="M2870 4970 c0 -5 5 -10 10 -10 6 0 10 5 10 10 0 6 -4 10 -10 10 -5 0
-10 -4 -10 -10z"/>
<path d="M1710 4770 c-8 -5 -12 -11 -9 -14 3 -3 14 1 25 9 21 16 8 20 -16 5z"/>
<path d="M3775 4500 c3 -5 8 -10 11 -10 2 0 4 5 4 10 0 6 -5 10 -11 10 -5 0
-7 -4 -4 -10z"/>
<path d="M3816 4441 c-3 -5 1 -12 10 -15 22 -8 25 -4 9 11 -8 7 -16 9 -19 4z"/>
<path d="M1326 4389 c4 -6 1 -15 -6 -19 -7 -4 -8 -10 -3 -13 5 -3 14 3 21 13
9 14 8 19 -4 24 -9 4 -12 2 -8 -5z"/>
<path d="M1270 4280 c0 -5 5 -10 11 -10 5 0 7 5 4 10 -3 6 -8 10 -11 10 -2 0
-4 -4 -4 -10z"/>
<path d="M1230 4195 c0 -2 6 -8 13 -14 10 -8 14 -7 14 2 0 8 -6 14 -14 14 -7
0 -13 -1 -13 -2z"/>
<path d="M3960 4100 c-8 -5 -10 -10 -5 -10 6 0 17 5 25 10 8 5 11 10 5 10 -5
0 -17 -5 -25 -10z"/>
<path d="M4023 3125 c0 -8 4 -12 9 -9 5 3 6 10 3 15 -9 13 -12 11 -12 -6z"/>
<path d="M1156 3032 c-3 -5 1 -9 9 -9 8 0 12 4 9 9 -3 4 -7 8 -9 8 -2 0 -6 -4
-9 -8z"/>
<path d="M3960 2802 c0 -6 5 -14 10 -17 6 -4 7 -11 4 -17 -4 -7 -2 -8 5 -4 9
6 9 12 -1 24 -7 10 -14 19 -15 21 -2 2 -3 -1 -3 -7z"/>
<path d="M3943 2704 c0 -16 13 -19 21 -5 3 5 0 11 -7 14 -8 3 -14 -1 -14 -9z"/>
<path d="M1226 2682 c-3 -5 1 -9 9 -9 8 0 12 4 9 9 -3 4 -7 8 -9 8 -2 0 -6 -4
-9 -8z"/>
<path d="M3907 2597 c-3 -8 0 -14 7 -14 7 0 13 6 13 14 0 7 -4 13 -8 13 -4 0
-9 -6 -12 -13z"/>
<path d="M3870 2480 c0 -5 5 -10 10 -10 6 0 10 5 10 10 0 6 -4 10 -10 10 -5 0
-10 -4 -10 -10z"/>
<path d="M3901 2483 c-1 -17 16 -25 25 -12 4 7 3 9 -4 5 -5 -3 -13 0 -15 6 -4
9 -6 10 -6 1z"/>
<path d="M4006 2478 c3 -5 10 -6 15 -3 13 9 11 12 -6 12 -8 0 -12 -4 -9 -9z"/>
<path d="M4120 2481 c0 -6 4 -13 10 -16 6 -3 7 1 4 9 -7 18 -14 21 -14 7z"/>
<path d="M4210 2481 c0 -5 7 -11 14 -14 10 -4 13 -1 9 9 -6 15 -23 19 -23 5z"/>
<path d="M4295 2461 c-3 -6 5 -15 17 -21 21 -10 21 -10 6 3 -10 8 -15 17 -11
20 3 4 4 7 0 7 -3 0 -8 -4 -12 -9z"/>
<path d="M4335 2400 c-3 -5 -1 -10 4 -10 6 0 11 5 11 10 0 6 -2 10 -4 10 -3 0
-8 -4 -11 -10z"/>
<path d="M4365 2280 c-3 -5 1 -10 10 -10 9 0 13 5 10 10 -3 6 -8 10 -10 10 -2
0 -7 -4 -10 -10z"/>
<path d="M4316 1448 c3 -5 10 -6 15 -3 13 9 11 12 -6 12 -8 0 -12 -4 -9 -9z"/>
<path d="M4315 1240 c-3 -6 1 -7 9 -4 18 7 21 14 7 14 -6 0 -13 -4 -16 -10z"/>
<path d="M644 952 c3 -5 0 -13 -6 -15 -9 -4 -10 -6 -1 -6 17 -1 25 16 12 25
-7 4 -9 3 -5 -4z"/>
<path d="M4650 359 c0 -5 5 -7 10 -4 6 3 10 8 10 11 0 2 -4 4 -10 4 -5 0 -10
-5 -10 -11z"/>
<path d="M353 15 c0 -8 4 -12 9 -9 5 3 6 10 3 15 -9 13 -12 11 -12 -6z"/>
<path d="M833 15 c0 -8 4 -12 9 -9 5 3 6 10 3 15 -9 13 -12 11 -12 -6z"/>
<path d="M1313 15 c0 -8 4 -12 9 -9 5 3 6 10 3 15 -9 13 -12 11 -12 -6z"/>
<path d="M1793 15 c0 -8 4 -12 9 -9 5 3 6 10 3 15 -9 13 -12 11 -12 -6z"/>
<path d="M2273 15 c0 -8 4 -12 9 -9 5 3 6 10 3 15 -9 13 -12 11 -12 -6z"/>
<path d="M2753 15 c0 -8 4 -12 9 -9 5 3 6 10 3 15 -9 13 -12 11 -12 -6z"/>
<path d="M3233 15 c0 -8 4 -12 9 -9 5 3 6 10 3 15 -9 13 -12 11 -12 -6z"/>
<path d="M3713 15 c0 -8 4 -12 9 -9 5 3 6 10 3 15 -9 13 -12 11 -12 -6z"/>
<path d="M4193 15 c0 -8 4 -12 9 -9 5 3 6 10 3 15 -9 13 -12 11 -12 -6z"/>
<path d="M4673 15 c0 -8 4 -12 9 -9 5 3 6 10 3 15 -9 13 -12 11 -12 -6z"/>
<path d="M24 13 c4 -4 16 -8 28 -10 28 -4 18 6 -12 12 -12 2 -20 1 -16 -2z"/>
<path d="M504 13 c4 -4 16 -8 28 -10 28 -4 18 6 -12 12 -12 2 -20 1 -16 -2z"/>
<path d="M984 13 c4 -4 16 -8 28 -10 28 -4 18 6 -12 12 -12 2 -20 1 -16 -2z"/>
<path d="M1464 13 c4 -4 16 -8 28 -10 28 -4 18 6 -12 12 -12 2 -20 1 -16 -2z"/>
<path d="M1944 13 c4 -4 16 -8 28 -10 28 -4 18 6 -12 12 -12 2 -20 1 -16 -2z"/>
<path d="M2424 13 c4 -4 16 -8 28 -10 28 -4 18 6 -12 12 -12 2 -20 1 -16 -2z"/>
<path d="M2904 13 c4 -4 16 -8 28 -10 28 -4 18 6 -12 12 -12 2 -20 1 -16 -2z"/>
<path d="M3384 13 c4 -4 16 -8 28 -10 28 -4 18 6 -12 12 -12 2 -20 1 -16 -2z"/>
<path d="M3864 13 c4 -4 16 -8 28 -10 28 -4 18 6 -12 12 -12 2 -20 1 -16 -2z"/>
<path d="M4344 13 c4 -4 16 -8 28 -10 28 -4 18 6 -12 12 -12 2 -20 1 -16 -2z"/>
<path d="M4824 13 c4 -4 16 -8 28 -10 28 -4 18 6 -12 12 -12 2 -20 1 -16 -2z"/>
<path d="M5144 13 c4 -4 16 -8 28 -10 28 -4 18 6 -12 12 -12 2 -20 1 -16 -2z"/>
</g>
</svg>
